<svg id="visual" viewBox="0 0 1920 1080" width="1920" height="1080" xmlns="http://www.w3.org/2000/svg" xmlns:xlink="http://www.w3.org/1999/xlink" version="1.1"><rect x="0" y="0" width="1920" height="1080" fill="#001011"></rect><defs><linearGradient id="grad1_0" x1="43.8%" y1="0%" x2="100%" y2="100%"><stop offset="14.444444444444446%" stop-color="#001011" stop-opacity="1"></stop><stop offset="85.55555555555554%" stop-color="#001011" stop-opacity="1"></stop></linearGradient></defs><defs><linearGradient id="grad2_0" x1="0%" y1="0%" x2="56.3%" y2="100%"><stop offset="14.444444444444446%" stop-color="#001011" stop-opacity="1"></stop><stop offset="85.55555555555554%" stop-color="#001011" stop-opacity="1"></stop></linearGradient></defs><g transform="translate(1920, 0)"><path d="M0 972C-141.5 972.9 -283 973.8 -372 898C-461 822.3 -497.4 669.9 -572 572C-646.7 474.2 -759.4 431 -832.4 344.8C-905.4 258.6 -938.7 129.3 -972 0L0 0Z" fill="#09E85E"></path></g><g transform="translate(0, 1080)"><path d="M0 -972C125 -929.5 250 -887 338.3 -816.7C426.6 -746.4 478.3 -648.4 577.7 -577.7C677.1 -507 824.3 -463.7 898 -372C971.7 -280.2 971.8 -140.1 972 0L0 0Z" fill="#09E85E"></path></g></svg>